<?xml version="1.0" encoding="iso-8859-1"?>
<!-- Generator: Adobe Illustrator 19.0.0, SVG Export Plug-In . SVG Version: 6.00 Build 0)  -->
<svg version="1.1" id="Capa_1" xmlns="http://www.w3.org/2000/svg" xmlns:xlink="http://www.w3.org/1999/xlink" x="0px" y="0px"
	 viewBox="0 0 512 512" style="enable-background:new 0 0 512 512;" xml:space="preserve">
<g>
	<g>
		<path d="M475.803,5.184C472.763,1.888,468.507,0,463.995,0h-416c-4.48,0-8.768,1.888-11.808,5.184
			c-3.008,3.328-4.512,7.744-4.128,12.192l37.888,432c0.576,6.656,5.184,12.192,11.584,14.016l170.112,48
			c1.44,0.416,2.88,0.608,4.352,0.608c1.472,0,2.944-0.192,4.352-0.576l170.048-47.968c6.4-1.824,10.976-7.392,11.584-14.016
			l37.952-432.032C480.348,12.928,478.843,8.512,475.803,5.184z M411.099,435.616L255.995,479.36l-155.136-43.776L65.467,32h381.056
			L411.099,435.616z"/>
	</g>
</g>
<g>
	<g>
		<path d="M379.675,101.056c-3.008-3.232-7.232-5.056-11.68-5.056h-224c-8.832,0-16,7.168-16,16c0,8.832,7.168,16,16,16h206.912
			l-14.176,212.224l-80.736,26.912l-80-26.656V320c0-8.832-7.168-16-16-16c-8.832,0-16,7.168-16,16v32
			c0,6.88,4.416,12.992,10.944,15.2l96,32c1.632,0.512,3.36,0.8,5.056,0.8c1.728,0,3.392-0.288,5.056-0.832l96-32
			c6.176-2.048,10.464-7.616,10.912-14.112l16-240C384.251,108.64,382.683,104.288,379.675,101.056z"/>
	</g>
</g>
<g>
	<g>
		<path d="M359.355,224h-211.52c-8.832,0-16,7.168-16,16c0,8.832,7.168,16,16,16h211.52c8.864,0,16-7.168,16-16
			C375.355,231.168,368.187,224,359.355,224z"/>
	</g>
</g>
<g>
</g>
<g>
</g>
<g>
</g>
<g>
</g>
<g>
</g>
<g>
</g>
<g>
</g>
<g>
</g>
<g>
</g>
<g>
</g>
<g>
</g>
<g>
</g>
<g>
</g>
<g>
</g>
<g>
</g>
</svg>
