<?xml version="1.0" encoding="iso-8859-1"?>
<!-- Generator: Adobe Illustrator 18.0.0, SVG Export Plug-In . SVG Version: 6.00 Build 0)  -->
<!DOCTYPE svg PUBLIC "-//W3C//DTD SVG 1.1//EN" "http://www.w3.org/Graphics/SVG/1.1/DTD/svg11.dtd">
<svg version="1.1" id="Capa_1" xmlns="http://www.w3.org/2000/svg" xmlns:xlink="http://www.w3.org/1999/xlink" x="0px" y="0px"
	 viewBox="0 0 490 490" style="color:#4361ee;" xml:space="preserve">
<g>
	<path d="M480,31.431H10c-5.523,0-10,4.477-10,10v407.138c0,5.523,4.477,10,10,10h470c5.522,0,10-4.477,10-10V41.431
		C490,35.908,485.522,31.431,480,31.431z M470,51.431v77.636H20V51.431H470z M20,438.569V149.067h450v289.502H20z"/>
	<g>
		<path d="M54.426,100.249h96c5.522,0,10-4.477,10-10c0-5.523-4.478-10-10-10h-96c-5.523,0-10,4.477-10,10
			C44.426,95.772,48.903,100.249,54.426,100.249z"/>
		<path d="M194.721,100.249h22.603c5.522,0,10-4.477,10-10c0-5.523-4.478-10-10-10h-22.603c-5.522,0-10,4.477-10,10
			C184.721,95.772,189.198,100.249,194.721,100.249z"/>
	</g>
	<g>
		<path d="M370.616,246.126H145.695l18.114-16.096c4.128-3.668,4.501-9.989,0.833-14.117c-3.67-4.129-9.988-4.503-14.118-0.833
			l-37.781,33.571c-2.136,1.897-3.357,4.618-3.357,7.475c0,2.857,1.222,5.578,3.357,7.476l37.781,33.57
			c1.905,1.692,4.276,2.524,6.639,2.524c2.758,0,5.504-1.134,7.479-3.358c3.668-4.128,3.295-10.449-0.833-14.118l-18.113-16.095
			h224.92c5.522,0,10-4.477,10-10C380.616,250.603,376.139,246.126,370.616,246.126z"/>
		<path d="M377.259,336.929l-37.781-33.57c-4.129-3.668-10.45-3.294-14.118,0.833c-3.668,4.128-3.295,10.449,0.833,14.118
			l18.113,16.095H119.384c-5.522,0-10,4.477-10,10c0,5.523,4.478,10,10,10h224.923l-18.114,16.096
			c-4.128,3.668-4.577,10.058-0.833,14.117c4.364,4.731,9.729,4.107,14.118,0.833c8.934-6.664,37.781-33.571,37.781-33.571
			c2.136-1.897,3.357-4.618,3.357-7.475C380.616,341.548,379.395,338.827,377.259,336.929z"/>
	</g>
</g>
<g>
</g>
<g>
</g>
<g>
</g>
<g>
</g>
<g>
</g>
<g>
</g>
<g>
</g>
<g>
</g>
<g>
</g>
<g>
</g>
<g>
</g>
<g>
</g>
<g>
</g>
<g>
</g>
<g>
</g>
</svg>
